<svg width="168" height="28" viewBox="0 0 168 28" fill="none" xmlns="http://www.w3.org/2000/svg">
<g clip-path="url(#clip0_2596_14486)">
<path d="M153.889 11.0827H163.74H163.976C163.977 10.0579 164.383 9.07538 165.104 8.35074C165.826 7.6261 166.804 7.21851 167.825 7.2174V3.39258C164.996 3.39258 162.548 4.96075 161.223 7.25973H153.889C150.961 7.25973 148.578 9.64059 148.578 12.7416C148.578 15.6672 150.961 18.049 153.889 18.049H159.271V18.0397H160.351C161.525 18.0397 162.481 18.984 162.481 20.1447V20.3521C162.481 21.5128 161.526 22.4576 160.351 22.4576H141.693V26.2801H160.35C163.623 26.2801 166.286 23.6206 166.286 20.3526V20.1451C166.286 16.8771 163.623 14.2176 160.35 14.2176H153.984V14.2269H153.892C153.061 14.2269 152.386 13.5603 152.386 12.5676C152.384 11.7493 153.059 11.0827 153.889 11.0827Z" fill="url(#paint0_linear_2596_14486)"/>
<path d="M125.617 7.28027H120.736V7.31702C115.666 7.51241 111.591 11.6861 111.591 16.8256C111.591 22.0888 115.856 26.3723 121.096 26.3723H126.387V22.5498H121.094C119.583 22.5479 118.135 21.9446 117.067 20.872C115.999 19.7994 115.397 18.3451 115.395 16.8279C115.395 13.6725 117.952 11.106 121.094 11.106H125.617C126.74 11.106 127.652 12.0094 127.652 13.1194V13.3217C127.652 14.4312 126.74 15.3337 125.617 15.3337H120.736V19.1562H125.62C128.84 19.1562 131.46 16.5395 131.46 13.3217V13.1157C131.458 9.89838 128.838 7.28027 125.617 7.28027Z" fill="url(#paint1_linear_2596_14486)"/>
<path d="M104.654 2.35352H100.848V7.26038H85.8356C82.9079 7.26038 80.5254 9.64124 80.5254 12.7422C80.5254 15.6678 82.9079 18.0496 85.8356 18.0496H91.218V18.0403H92.7682C93.9414 18.0403 94.8988 18.9846 94.8988 20.1453V20.3528C94.8988 21.5134 93.9433 22.4583 92.7682 22.4583H84.5572V26.2803H92.7682C96.0405 26.2803 98.7023 23.6208 98.7023 20.3528V20.1453C98.7023 16.8773 96.0405 14.2178 92.7682 14.2178H86.4016V14.2271H85.8356C85.006 14.2271 84.3312 13.5605 84.3312 12.5678C84.3312 11.7495 85.006 11.0829 85.8356 11.0829H100.848V17.8747C100.848 22.5518 104.661 26.3575 109.348 26.3575V22.5364C106.759 22.5364 104.654 20.4458 104.654 17.8761V11.0843H109.634V7.26038H104.654V2.35352Z" fill="url(#paint2_linear_2596_14486)"/>
<path d="M54.9564 17.7974V2.2334H51.1506V17.7974C51.1506 22.4749 54.9629 26.2802 59.6496 26.2802V22.4582C57.0619 22.4582 54.9564 20.3676 54.9564 17.7974Z" fill="url(#paint3_linear_2596_14486)"/>
<path d="M145.538 11.1926V7.37012H142.836C138.179 7.37012 134.39 11.1982 134.39 15.9046V26.3044H138.197V15.906C138.197 13.3078 140.279 11.194 142.838 11.194L145.538 11.1926Z" fill="url(#paint4_linear_2596_14486)"/>
<path d="M36.3529 21.3289C33.9509 19.8677 32.6809 17.1929 32.6809 13.5965C32.6809 9.29063 34.855 7.28007 36.678 6.35154C39.4274 4.9527 43.0697 5.1518 45.3392 6.82511L47.5897 3.74134C44.1702 1.22371 38.9749 0.894353 34.9578 2.94167C31.0348 4.93875 28.8746 8.72216 28.8746 13.5946C28.8746 18.5294 30.8306 22.4333 34.3807 24.595C36.2566 25.7375 38.4737 26.3051 40.7946 26.3051C43.2374 26.3051 45.7968 25.6761 48.1891 24.4178L46.4253 21.0321C42.9312 22.8706 39.0726 22.9845 36.3529 21.3289Z" fill="url(#paint5_linear_2596_14486)"/>
<path d="M76.5037 21.9439C76.4292 21.7958 76.3371 21.6573 76.2296 21.5313C76.6747 20.4599 76.9049 19.3108 76.9067 18.1498V12.8848H73.1009V18.1498C73.1009 20.593 71.4335 22.5808 69.3858 22.5808C67.3382 22.5808 65.6703 20.593 65.6703 18.1498V12.8848H61.8645V18.1498C61.8645 22.7003 65.2382 26.4033 69.3858 26.4033C71.0921 26.4033 72.6488 25.752 73.9119 24.6984C76.3328 26.2233 79.2355 26.6126 81.5569 25.9576C79.1693 25.3264 77.3657 23.7289 76.5037 21.9439Z" fill="url(#paint6_linear_2596_14486)"/>
<path d="M67.5461 6.33358L64.3498 7.29328L67.5461 8.25297L66.7596 9.71647L68.2168 8.92657L69.1723 12.1373L70.1278 8.92657L71.5854 9.71647L70.7984 8.25297L73.9952 7.29328L70.7989 6.33358L71.5854 4.87009L70.1278 5.65998L69.1723 2.44922L68.2168 5.65998L66.7596 4.87009L67.5461 6.33358Z" fill="url(#paint7_linear_2596_14486)"/>
<path d="M75.1568 4.49144C75.571 4.49144 75.9759 4.36808 76.3202 4.13696C76.6646 3.90585 76.933 3.57735 77.0915 3.19303C77.2499 2.8087 77.2914 2.3858 77.2105 1.97782C77.1297 1.56984 76.9302 1.1951 76.6373 0.900988C76.3444 0.606878 75.9713 0.406609 75.5651 0.325512C75.1588 0.244414 74.7378 0.28613 74.3552 0.445383C73.9726 0.604636 73.6456 0.874273 73.4155 1.22019C73.1855 1.56611 73.0628 1.97278 73.0629 2.38876C73.0629 2.66493 73.117 2.93839 73.2223 3.19353C73.3275 3.44867 73.4818 3.68048 73.6762 3.87574C73.8707 4.071 74.1015 4.22587 74.3555 4.33151C74.6096 4.43716 74.8819 4.4915 75.1568 4.49144Z" fill="url(#paint8_linear_2596_14486)"/>
<path d="M64.1706 5.71559C64.8589 5.71559 65.417 5.15512 65.417 4.46375C65.417 3.77238 64.8589 3.21191 64.1706 3.21191C63.4822 3.21191 62.9242 3.77238 62.9242 4.46375C62.9242 5.15512 63.4822 5.71559 64.1706 5.71559Z" fill="url(#paint9_linear_2596_14486)"/>
<path d="M71.4136 11.1147C71.4136 11.2668 71.4585 11.4154 71.5426 11.5419C71.6267 11.6683 71.7463 11.7669 71.8862 11.8251C72.0261 11.8833 72.18 11.8985 72.3286 11.8689C72.4771 11.8392 72.6135 11.766 72.7206 11.6584C72.8276 11.5509 72.9005 11.4139 72.9301 11.2647C72.9596 11.1155 72.9445 10.9609 72.8865 10.8204C72.8286 10.6799 72.7304 10.5598 72.6045 10.4753C72.4786 10.3908 72.3306 10.3457 72.1792 10.3457C71.9761 10.3457 71.7814 10.4267 71.6378 10.5709C71.4942 10.7151 71.4136 10.9107 71.4136 11.1147Z" fill="url(#paint10_linear_2596_14486)"/>
<path d="M76.1573 7.43652C75.8981 7.43643 75.6447 7.51355 75.4292 7.65812C75.2136 7.80269 75.0456 8.00822 74.9464 8.24872C74.8472 8.48921 74.8212 8.75386 74.8717 9.00919C74.9223 9.26452 75.0471 9.49905 75.2303 9.68313C75.4136 9.86721 75.6471 9.99256 75.9013 10.0433C76.1556 10.0941 76.419 10.068 76.6585 9.96832C76.8979 9.86866 77.1026 9.69991 77.2465 9.48341C77.3905 9.26692 77.4672 9.01242 77.4671 8.75209C77.4671 8.40318 77.3291 8.06856 77.0835 7.82184C76.8379 7.57513 76.5047 7.43652 76.1573 7.43652Z" fill="url(#paint11_linear_2596_14486)"/>
<path d="M64.3336 9.43301C64.3335 9.5775 64.3761 9.71878 64.456 9.83895C64.5358 9.95913 64.6494 10.0528 64.7823 10.1081C64.9152 10.1635 65.0614 10.178 65.2025 10.1498C65.3436 10.1217 65.4733 10.0521 65.575 9.94992C65.6767 9.84775 65.746 9.71757 65.774 9.57585C65.8021 9.43413 65.7876 9.28724 65.7325 9.15377C65.6774 9.0203 65.5841 8.90623 65.4645 8.82602C65.3448 8.7458 65.2042 8.70303 65.0603 8.70313C64.8676 8.70325 64.6829 8.78019 64.5466 8.91704C64.4103 9.05389 64.3337 9.23947 64.3336 9.43301Z" fill="url(#paint12_linear_2596_14486)"/>
<path d="M19.4794 21.0895C19.7453 21.4993 19.9977 21.8854 20.2474 22.2734C20.4002 22.5106 20.5405 22.7572 20.7036 22.987C20.7562 23.054 20.7901 23.1339 20.8017 23.2185C20.8132 23.3031 20.8021 23.3892 20.7693 23.468C20.7462 23.5412 20.716 23.6119 20.679 23.6792C19.9018 24.9129 18.8944 25.8809 17.5207 26.421C16.7803 26.717 15.9795 26.8288 15.1868 26.7467C15.1129 26.7344 15.037 26.7415 14.9666 26.7674C14.8962 26.7934 14.8337 26.8372 14.7852 26.8946C14.1929 27.517 13.4726 27.8966 12.613 27.9818C11.8164 28.0613 11.0883 27.851 10.4361 27.3966C10.186 27.2226 9.96509 27.003 9.74138 26.7918C9.71146 26.757 9.67308 26.7306 9.62999 26.7151C9.5869 26.6996 9.54055 26.6956 9.49544 26.7034C7.40055 27.0016 5.75029 26.1777 4.38951 24.6449C4.15237 24.3774 3.95414 24.0746 3.74386 23.7834C3.6855 23.6992 3.63802 23.6079 3.6026 23.5117C3.56425 23.4262 3.54916 23.3321 3.55884 23.2389C3.56852 23.1456 3.60264 23.0566 3.65771 22.9809C4.02037 22.4413 4.36358 21.8887 4.71373 21.3407C4.74986 21.2844 4.78182 21.2248 4.82535 21.1495C4.75264 21.0839 4.6864 21.0201 4.61554 20.9634C3.50581 20.05 2.56292 18.9495 1.82914 17.7112C1.25296 16.7385 0.763861 15.7244 0.46373 14.6279C0.340528 14.1744 0.248821 13.712 0.139514 13.2542C-0.075394 12.3475 -0.0188885 11.4376 0.118671 10.5296C0.489203 8.09148 1.52901 5.96322 3.12461 4.10989C4.57432 2.42589 6.3399 1.20569 8.4524 0.507897C9.55708 0.145132 10.7151 -0.0263313 11.877 0.000836034C12.4055 0.0120007 12.9354 0.000835807 13.462 0.0413077C14.9191 0.150628 16.2873 0.579536 17.5744 1.26663C19.6295 2.36309 21.2334 3.93637 22.4377 5.92833C23.037 6.92105 23.5215 7.96774 23.8193 9.09165C24.0411 9.929 24.225 10.7761 24.232 11.6446C24.2375 12.2936 24.2713 12.9532 24.0972 13.5873C23.8346 14.5433 23.5576 15.4946 23.1204 16.3919C22.5785 17.5014 21.9541 18.5583 21.1315 19.4855C20.6781 19.9972 20.2108 20.4959 19.6712 20.9201C19.6114 20.9699 19.5563 21.0229 19.4794 21.0895ZM17.4156 14.5567C17.4503 14.5177 17.485 14.4809 17.517 14.4418C18.0696 13.7665 18.5611 13.0431 18.9857 12.2801C19.2091 11.8856 19.3893 11.4681 19.5234 11.0348C19.723 10.3681 19.3382 9.59545 18.7314 9.36007C18.496 9.26121 18.2549 9.17671 18.0093 9.107C17.1666 8.8891 16.3025 8.76523 15.4328 8.73764C15.2595 8.73205 15.1576 8.67577 15.077 8.51248C14.7076 7.77839 14.2676 7.08226 13.7635 6.434C13.5194 6.11395 13.2587 5.80273 12.9127 5.58921C12.4305 5.29195 11.9294 5.28823 11.4435 5.57711C11.0785 5.79389 10.809 6.12092 10.5547 6.45493C10.0579 7.09787 9.6236 7.78718 9.25784 8.51341C9.1791 8.67344 9.07721 8.72647 8.90259 8.74043C8.3681 8.78323 7.83407 8.83905 7.30282 8.91208C6.74433 8.98436 6.19717 9.12722 5.67433 9.33727C5.00599 9.6108 4.63221 10.3947 4.85963 11.0952C5.0057 11.5337 5.19483 11.9565 5.42422 12.3573C5.84085 13.0951 6.31999 13.7955 6.85633 14.4507C6.93322 14.5437 6.98138 14.6312 6.95684 14.7726C6.84521 15.4127 6.72757 16.0537 6.66273 16.6994C6.6297 17.0912 6.64166 17.4855 6.69839 17.8745C6.7762 18.4681 7.27549 18.9105 7.86696 18.9984C8.21201 19.05 8.54873 19.0096 8.88592 18.9561C9.76033 18.8099 10.6177 18.575 11.4449 18.255C11.6584 18.1741 11.8687 18.0843 12.0989 17.9917C11.9887 17.8322 11.8877 17.6949 11.7964 17.5517C11.5389 17.1479 11.2907 16.7404 11.1239 16.2859C10.9308 15.7593 11.211 15.269 11.6797 15.1099C11.8231 15.0553 11.9701 15.011 12.1197 14.9773C12.5718 14.8949 13.0252 14.8191 13.4801 14.7535C13.619 14.7335 13.7047 14.6893 13.7806 14.5633C13.9886 14.2195 14.2086 13.8822 14.4425 13.5556C14.5912 13.3577 14.7526 13.1697 14.9256 12.9928C15.2433 12.6532 15.826 12.6546 16.1456 12.9867C16.2637 13.1095 16.3859 13.2305 16.4915 13.364C16.7982 13.7506 17.0969 14.1446 17.4156 14.5567ZM14.0345 15.208C13.7075 15.249 13.3754 15.275 13.0498 15.3373C12.7818 15.3841 12.5196 15.4594 12.2675 15.562C11.9308 15.7062 11.79 16.0388 11.8895 16.3938C11.9338 16.5679 12.0018 16.7351 12.0915 16.8906C12.3268 17.277 12.5738 17.6557 12.8325 18.0266C12.9182 18.149 12.9525 18.2513 12.9215 18.4011C12.8608 18.6856 12.8192 18.9739 12.7969 19.264C12.7821 19.4771 12.795 19.6912 12.8353 19.9009C12.8853 20.1558 13.0669 20.3233 13.3152 20.38C13.4725 20.4179 13.6357 20.424 13.7955 20.3982C14.1628 20.3298 14.5273 20.2405 14.8885 20.1414C15.1173 20.0781 15.3378 19.9181 15.5615 19.9195C15.7931 19.9195 16.0247 20.0781 16.2604 20.1419C16.631 20.2414 17.0015 20.3326 17.3785 20.4024C17.6332 20.4489 17.8843 20.4252 18.101 20.2395C18.3178 20.0539 18.372 19.8185 18.3572 19.5692C18.3336 19.1775 18.2789 18.7872 18.2233 18.3983C18.2053 18.2708 18.2117 18.1727 18.2979 18.0685C18.4458 17.8907 18.5831 17.7043 18.7092 17.5103C18.9273 17.1735 19.1385 16.832 19.265 16.444C19.3873 16.0668 19.2103 15.6606 18.8301 15.5253C18.6718 15.4629 18.5084 15.4142 18.3419 15.3797C17.9315 15.309 17.5184 15.255 17.0853 15.1936C17.0177 15.0717 16.9464 14.9266 16.8593 14.7889C16.6305 14.4167 16.4063 14.0408 16.0766 13.7473C15.7468 13.4538 15.3878 13.4552 15.0678 13.7552C14.9068 13.908 14.7625 14.0777 14.6375 14.2613C14.4249 14.5716 14.2336 14.8949 14.0345 15.2103V15.208Z" fill="url(#paint13_linear_2596_14486)"/>
<path d="M17.4154 14.5566C17.0968 14.1435 16.798 13.7495 16.4919 13.362C16.3863 13.2285 16.264 13.1075 16.1459 12.9847C15.8263 12.6526 15.2437 12.6512 14.9259 12.9908C14.753 13.1677 14.5916 13.3557 14.4429 13.5537C14.209 13.8793 13.989 14.2175 13.781 14.5613C13.705 14.6873 13.618 14.7315 13.4804 14.7515C13.0256 14.8171 12.5721 14.8911 12.1201 14.9753C11.9705 15.009 11.8235 15.0533 11.6801 15.1079C11.209 15.267 10.9288 15.7591 11.1243 16.2839C11.291 16.7384 11.5411 17.1459 11.7968 17.5497C11.8894 17.693 11.989 17.8288 12.0992 17.9897C11.8677 18.0828 11.6588 18.1721 11.4452 18.253C10.6181 18.5731 9.76067 18.8079 8.88626 18.9541C8.55093 19.0076 8.21421 19.0471 7.8673 18.9964C7.27584 18.9085 6.77655 18.4661 6.69874 17.8725C6.64201 17.4835 6.63004 17.0892 6.66307 16.6974C6.72792 16.0517 6.84556 15.4107 6.95718 14.7706C6.98173 14.631 6.93356 14.5431 6.85668 14.4487C6.32033 13.7935 5.84119 13.0931 5.42457 12.3553C5.19518 11.9545 5.00605 11.5317 4.85997 11.0932C4.63256 10.3927 5.00633 9.60882 5.67468 9.33528C6.19751 9.12523 6.74467 8.98237 7.30317 8.9101C7.83442 8.83706 8.36845 8.78124 8.90294 8.73844C9.07755 8.72448 9.18084 8.67145 9.25819 8.51143C9.62395 7.7852 10.0582 7.09588 10.555 6.45294C10.8093 6.11894 11.0789 5.7919 11.4439 5.57512C11.9297 5.28624 12.4309 5.28996 12.913 5.58722C13.259 5.80074 13.5198 6.11196 13.7639 6.43201C14.2677 7.07985 14.7075 7.77551 15.0769 8.5091C15.1575 8.67238 15.2594 8.72867 15.4326 8.73425C16.3024 8.76185 17.1665 8.88572 18.0092 9.10362C18.2548 9.17332 18.4959 9.25783 18.7313 9.35668C19.339 9.5944 19.7229 10.3671 19.5233 11.0314C19.3892 11.4647 19.2089 11.8823 18.9856 12.2767C18.561 13.0397 18.0695 13.7632 17.5169 14.4385C17.4849 14.4817 17.4502 14.5185 17.4154 14.5566Z" fill="white"/>
<path d="M14.0343 15.2105C14.2335 14.8951 14.4248 14.5718 14.6364 14.2629C14.7615 14.0792 14.9057 13.9096 15.0667 13.7568C15.3867 13.4567 15.7485 13.4581 16.0755 13.7489C16.4025 14.0396 16.6313 14.4192 16.8582 14.7904C16.9434 14.93 17.0166 15.0733 17.0842 15.1951C17.5173 15.2589 17.9304 15.3128 18.3408 15.3812C18.5074 15.4157 18.6707 15.4644 18.829 15.5268C19.2092 15.6622 19.3848 16.0683 19.2639 16.4456C19.1388 16.8335 18.9276 17.175 18.7081 17.5118C18.5821 17.7059 18.4447 17.8923 18.2968 18.07C18.2107 18.1742 18.2042 18.2724 18.2222 18.3999C18.2778 18.7888 18.3325 19.1791 18.3561 19.5708C18.3709 19.8201 18.3098 20.0601 18.1 20.2411C17.8902 20.4221 17.6322 20.4514 17.3774 20.4039C17.0013 20.3341 16.6285 20.243 16.2593 20.1434C16.0217 20.0797 15.7934 19.9224 15.5604 19.921C15.3367 19.921 15.1163 20.0797 14.8875 20.1429C14.5262 20.242 14.1617 20.329 13.7944 20.3997C13.6347 20.4256 13.4714 20.4194 13.3141 20.3816C13.0649 20.3248 12.8843 20.1574 12.8342 19.9024C12.7939 19.6927 12.781 19.4786 12.7958 19.2656C12.8181 18.9755 12.8598 18.6872 12.9204 18.4026C12.9514 18.2529 12.9172 18.1505 12.8315 18.0282C12.573 17.656 12.326 17.2773 12.0904 16.8922C12.0007 16.7366 11.9328 16.5695 11.8885 16.3953C11.7889 16.0404 11.9297 15.7078 12.2664 15.5636C12.519 15.4612 12.7817 15.3862 13.0501 15.3398C13.3743 15.2775 13.7073 15.2514 14.0343 15.2105Z" fill="white"/>
</g>
<defs>
<linearGradient id="paint0_linear_2596_14486" x1="155.594" y1="19.5943" x2="151.017" y2="-6.25381" gradientUnits="userSpaceOnUse">
<stop offset="0.1" stop-color="#5BABDF"/>
<stop offset="0.29" stop-color="#52A2D8"/>
<stop offset="0.61" stop-color="#3A8AC7"/>
<stop offset="1" stop-color="#1363AA"/>
</linearGradient>
<linearGradient id="paint1_linear_2596_14486" x1="123.345" y1="25.5117" x2="118.782" y2="-0.254157" gradientUnits="userSpaceOnUse">
<stop offset="0.1" stop-color="#5BABDF"/>
<stop offset="0.29" stop-color="#52A2D8"/>
<stop offset="0.61" stop-color="#3A8AC7"/>
<stop offset="1" stop-color="#1363AA"/>
</linearGradient>
<linearGradient id="paint2_linear_2596_14486" x1="98.5481" y1="29.9911" x2="93.9849" y2="4.22344" gradientUnits="userSpaceOnUse">
<stop offset="0.1" stop-color="#5BABDF"/>
<stop offset="0.29" stop-color="#52A2D8"/>
<stop offset="0.61" stop-color="#3A8AC7"/>
<stop offset="1" stop-color="#1363AA"/>
</linearGradient>
<linearGradient id="paint3_linear_2596_14486" x1="58.3611" y1="37.3653" x2="53.7975" y2="11.5976" gradientUnits="userSpaceOnUse">
<stop offset="0.1" stop-color="#5BABDF"/>
<stop offset="0.29" stop-color="#52A2D8"/>
<stop offset="0.61" stop-color="#3A8AC7"/>
<stop offset="1" stop-color="#1363AA"/>
</linearGradient>
<linearGradient id="paint4_linear_2596_14486" x1="140.928" y1="22.3256" x2="136.351" y2="-3.51369" gradientUnits="userSpaceOnUse">
<stop offset="0.1" stop-color="#5BABDF"/>
<stop offset="0.29" stop-color="#52A2D8"/>
<stop offset="0.61" stop-color="#3A8AC7"/>
<stop offset="1" stop-color="#1363AA"/>
</linearGradient>
<linearGradient id="paint5_linear_2596_14486" x1="43.6125" y1="40.0711" x2="39.0461" y2="14.2848" gradientUnits="userSpaceOnUse">
<stop offset="0.1" stop-color="#5BABDF"/>
<stop offset="0.29" stop-color="#52A2D8"/>
<stop offset="0.61" stop-color="#3A8AC7"/>
<stop offset="1" stop-color="#1363AA"/>
</linearGradient>
<linearGradient id="paint6_linear_2596_14486" x1="73.822" y1="34.4856" x2="69.2785" y2="8.83228" gradientUnits="userSpaceOnUse">
<stop offset="0.1" stop-color="#5BABDF"/>
<stop offset="0.29" stop-color="#52A2D8"/>
<stop offset="0.61" stop-color="#3A8AC7"/>
<stop offset="1" stop-color="#1363AA"/>
</linearGradient>
<linearGradient id="paint7_linear_2596_14486" x1="69.9972" y1="11.9913" x2="68.3338" y2="2.59778" gradientUnits="userSpaceOnUse">
<stop offset="0.1" stop-color="#2172BA"/>
<stop offset="1" stop-color="#1363AA"/>
</linearGradient>
<linearGradient id="paint8_linear_2596_14486" x1="75.5204" y1="4.4598" x2="74.7866" y2="0.318353" gradientUnits="userSpaceOnUse">
<stop offset="0.1" stop-color="#2172BA"/>
<stop offset="1" stop-color="#1363AA"/>
</linearGradient>
<linearGradient id="paint9_linear_2596_14486" x1="64.3873" y1="5.69651" x2="63.9506" y2="3.23117" gradientUnits="userSpaceOnUse">
<stop offset="0.1" stop-color="#2172BA"/>
<stop offset="1" stop-color="#1363AA"/>
</linearGradient>
<linearGradient id="paint10_linear_2596_14486" x1="72.3121" y1="11.8725" x2="72.044" y2="10.3582" gradientUnits="userSpaceOnUse">
<stop offset="0.1" stop-color="#2172BA"/>
<stop offset="1" stop-color="#1363AA"/>
</linearGradient>
<linearGradient id="paint11_linear_2596_14486" x1="76.3847" y1="10.0486" x2="75.9256" y2="7.45675" gradientUnits="userSpaceOnUse">
<stop offset="0.1" stop-color="#2172BA"/>
<stop offset="1" stop-color="#1363AA"/>
</linearGradient>
<linearGradient id="paint12_linear_2596_14486" x1="65.1868" y1="10.1517" x2="64.9322" y2="8.71421" gradientUnits="userSpaceOnUse">
<stop offset="0.1" stop-color="#2172BA"/>
<stop offset="1" stop-color="#1363AA"/>
</linearGradient>
<linearGradient id="paint13_linear_2596_14486" x1="14.8913" y1="27.5905" x2="10.0273" y2="0.125802" gradientUnits="userSpaceOnUse">
<stop offset="0.1" stop-color="#3892D3"/>
<stop offset="0.27" stop-color="#3289CB"/>
<stop offset="0.55" stop-color="#2371B5"/>
<stop offset="0.89" stop-color="#0A4991"/>
<stop offset="1" stop-color="#013C85"/>
</linearGradient>
<clipPath id="clip0_2596_14486">
<rect width="167.825" height="28" fill="white"/>
</clipPath>
</defs>
</svg>
